# xmcd CD database file
#
# Track frame offsets:
#	150
#	20582
#	39989
#	49562
#	63963
#	81828
#	95414
#	114715
#	128178
#	146942
#	160659
#	179744
#	197575
#	216170
#
# Disc length: 3112 seconds
#
# Revision: 1
# Processed by: cddbd v1.5.2PL0 Copyright (c) Steve Scherf et al.
# Submitted via: CDex 1.51
#
DISCID=c60c260e
DTITLE=Suzie Lucas and Jackys Jazzcritters - Moods and Moments
DYEAR=2007
DGENRE=Jazz
TTITLE0=As time goes by
TTITLE1=Spooky
TTITLE2=More
TTITLE3=I've got you under my skin
TTITLE4=The shadow of your smile
TTITLE5=You're the top
TTITLE6=How do you keep the music playing
TTITLE7=At long last love
TTITLE8=Kiss
TTITLE9=I Can't give you anything but love
TTITLE10=Sway
TTITLE11=Twisted
TTITLE12=Corcovado
TTITLE13=Hit the road to dreamland (bye bye baby)
EXTD=YEAR: 2007
EXTT0=
EXTT1=
EXTT2=
EXTT3=
EXTT4=
EXTT5=
EXTT6=
EXTT7=
EXTT8=
EXTT9=
EXTT10=
EXTT11=
EXTT12=
EXTT13=
PLAYORDER=
